<svg width="50" height="50" viewBox="0 0 50 50" fill="none" xmlns="http://www.w3.org/2000/svg">
<mask id="mask0_490_30" style="mask-type:alpha" maskUnits="userSpaceOnUse" x="13" y="13" width="24" height="24">
<rect x="13" y="13" width="24" height="24" fill="#D9D9D9"/>
</mask>
<g mask="url(#mask0_490_30)">
<path d="M25.4375 33.7691V31.846H30.9062V18.3845H25.4375V16.4614H30.9062C31.3359 16.4614 31.7038 16.6497 32.0098 17.0263C32.3158 17.4029 32.4688 17.8557 32.4688 18.3845V31.846C32.4688 32.3749 32.3158 32.8276 32.0098 33.2042C31.7038 33.5808 31.3359 33.7691 30.9062 33.7691H25.4375ZM23.875 29.923L22.8008 28.5287L24.793 26.0768H18.4062V24.1537H24.793L22.8008 21.7018L23.875 20.3076L27.7812 25.1153L23.875 29.923Z" fill="white"/>
</g>
</svg>
