<svg width="50" height="50" viewBox="0 0 50 50" fill="none" xmlns="http://www.w3.org/2000/svg">
<path d="M22.2502 35L21.8502 31.8C21.6335 31.7167 21.4294 31.6167 21.2377 31.5C21.046 31.3833 20.8585 31.2583 20.6752 31.125L17.7002 32.375L14.9502 27.625L17.5252 25.675C17.5085 25.5583 17.5002 25.4458 17.5002 25.3375V24.6625C17.5002 24.5542 17.5085 24.4417 17.5252 24.325L14.9502 22.375L17.7002 17.625L20.6752 18.875C20.8585 18.7417 21.0502 18.6167 21.2502 18.5C21.4502 18.3833 21.6502 18.2833 21.8502 18.2L22.2502 15H27.7502L28.1502 18.2C28.3669 18.2833 28.571 18.3833 28.7627 18.5C28.9544 18.6167 29.1419 18.7417 29.3252 18.875L32.3002 17.625L35.0502 22.375L32.4752 24.325C32.4919 24.4417 32.5002 24.5542 32.5002 24.6625V25.3375C32.5002 25.4458 32.4835 25.5583 32.4502 25.675L35.0252 27.625L32.2752 32.375L29.3252 31.125C29.1419 31.2583 28.9502 31.3833 28.7502 31.5C28.5502 31.6167 28.3502 31.7167 28.1502 31.8L27.7502 35H22.2502ZM24.0002 33H25.9752L26.3252 30.35C26.8419 30.2167 27.321 30.0208 27.7627 29.7625C28.2044 29.5042 28.6085 29.1917 28.9752 28.825L31.4502 29.85L32.4252 28.15L30.2752 26.525C30.3585 26.2917 30.4169 26.0458 30.4502 25.7875C30.4835 25.5292 30.5002 25.2667 30.5002 25C30.5002 24.7333 30.4835 24.4708 30.4502 24.2125C30.4169 23.9542 30.3585 23.7083 30.2752 23.475L32.4252 21.85L31.4502 20.15L28.9752 21.2C28.6085 20.8167 28.2044 20.4958 27.7627 20.2375C27.321 19.9792 26.8419 19.7833 26.3252 19.65L26.0002 17H24.0252L23.6752 19.65C23.1585 19.7833 22.6794 19.9792 22.2377 20.2375C21.796 20.4958 21.3919 20.8083 21.0252 21.175L18.5502 20.15L17.5752 21.85L19.7252 23.45C19.6419 23.7 19.5835 23.95 19.5502 24.2C19.5169 24.45 19.5002 24.7167 19.5002 25C19.5002 25.2667 19.5169 25.525 19.5502 25.775C19.5835 26.025 19.6419 26.275 19.7252 26.525L17.5752 28.15L18.5502 29.85L21.0252 28.8C21.3919 29.1833 21.796 29.5042 22.2377 29.7625C22.6794 30.0208 23.1585 30.2167 23.6752 30.35L24.0002 33ZM25.0502 28.5C26.0169 28.5 26.8419 28.1583 27.5252 27.475C28.2085 26.7917 28.5502 25.9667 28.5502 25C28.5502 24.0333 28.2085 23.2083 27.5252 22.525C26.8419 21.8417 26.0169 21.5 25.0502 21.5C24.0669 21.5 23.2377 21.8417 22.5627 22.525C21.8877 23.2083 21.5502 24.0333 21.5502 25C21.5502 25.9667 21.8877 26.7917 22.5627 27.475C23.2377 28.1583 24.0669 28.5 25.0502 28.5Z" fill="white"/>
</svg>
