<svg width="50" height="50" viewBox="0 0 50 50" fill="none" xmlns="http://www.w3.org/2000/svg">
<g clip-path="url(#clip0_469_158)">
<path d="M27 27.76V16.5C27 15.837 26.7366 15.2011 26.2678 14.7322C25.7989 14.2634 25.163 14 24.5 14C23.837 14 23.2011 14.2634 22.7322 14.7322C22.2634 15.2011 22 15.837 22 16.5V27.76C21.1973 28.2963 20.5883 29.0766 20.2631 29.9856C19.9378 30.8946 19.9135 31.8841 20.1938 32.8079C20.474 33.7317 21.0439 34.541 21.8193 35.1161C22.5948 35.6912 23.5346 36.0017 24.5 36.0017C25.4654 36.0017 26.4052 35.6912 27.1807 35.1161C27.9561 34.541 28.526 33.7317 28.8062 32.8079C29.0865 31.8841 29.0622 30.8946 28.7369 29.9856C28.4117 29.0766 27.8027 28.2963 27 27.76Z" stroke="white" stroke-width="2.5" stroke-linecap="round" stroke-linejoin="round"/>
</g>
<defs>
<clipPath id="clip0_469_158">
<rect width="24" height="24" fill="white" transform="translate(13 13)"/>
</clipPath>
</defs>
</svg>
