<svg width="78" height="78" viewBox="0 0 78 78" fill="none" xmlns="http://www.w3.org/2000/svg">
<g filter="url(#filter0_d_329_559)">
<path opacity="0.5" d="M34.8619 22.9229C36.5979 19.9436 40.9021 19.9436 42.6381 22.9229L43.979 25.2242C44.782 26.6022 46.2543 27.4523 47.8492 27.4586L50.5126 27.4692C53.9608 27.483 56.1129 31.2106 54.4007 34.2037L53.0782 36.5155C52.2863 37.8999 52.2863 39.6001 53.0782 40.9845L54.4007 43.2963C56.1129 46.2894 53.9608 50.017 50.5126 50.0308L47.8492 50.0414C46.2543 50.0477 44.782 50.8978 43.979 52.2758L42.6381 54.5771C40.9021 57.5564 36.5979 57.5564 34.8619 54.5771L33.521 52.2758C32.718 50.8978 31.2457 50.0477 29.6508 50.0414L26.9874 50.0308C23.5392 50.017 21.3871 46.2894 23.0993 43.2963L24.4218 40.9845C25.2137 39.6001 25.2137 37.8999 24.4218 36.5155L23.0993 34.2037C21.3871 31.2106 23.5392 27.483 26.9874 27.4692L29.6508 27.4586C31.2457 27.4523 32.718 26.6022 33.521 25.2242L34.8619 22.9229Z" fill="url(#paint0_radial_329_559)"/>
<path opacity="0.5" d="M43.3013 23.0901C46.2944 21.3779 50.022 23.5301 50.0357 26.9782L50.0464 29.6477C50.0527 31.2426 50.9028 32.715 52.2808 33.5179L54.5874 34.8619C57.5667 36.5979 57.5667 40.9021 54.5874 42.6381L52.2808 43.9821C50.9028 44.785 50.0527 46.2574 50.0464 47.8523L50.0357 50.5218C50.022 53.9699 46.2944 56.1221 43.3013 54.4099L40.9841 53.0844C39.5998 52.2924 37.8996 52.2924 36.5152 53.0844L34.1981 54.4099C31.205 56.1221 27.4774 53.9699 27.4636 50.5218L27.453 47.8523C27.4467 46.2574 26.5966 44.785 25.2186 43.9821L22.912 42.6381C19.9327 40.9021 19.9327 36.5979 22.912 34.8619L25.2186 33.5179C26.5966 32.715 27.4467 31.2426 27.453 29.6477L27.4636 26.9782C27.4774 23.5301 31.205 21.3779 34.1981 23.0901L36.5152 24.4157C37.8996 25.2076 39.5998 25.2076 40.9842 24.4157L43.3013 23.0901Z" fill="url(#paint1_radial_329_559)"/>
<circle cx="38.75" cy="38.75" r="10.5" fill="white"/>
</g>
<defs>
<filter id="filter0_d_329_559" x="-4" y="0" width="85.5" height="85.5" filterUnits="userSpaceOnUse" color-interpolation-filters="sRGB">
<feFlood flood-opacity="0" result="BackgroundImageFix"/>
<feColorMatrix in="SourceAlpha" type="matrix" values="0 0 0 0 0 0 0 0 0 0 0 0 0 0 0 0 0 0 127 0" result="hardAlpha"/>
<feOffset dy="4"/>
<feGaussianBlur stdDeviation="2"/>
<feComposite in2="hardAlpha" operator="out"/>
<feColorMatrix type="matrix" values="0 0 0 0 0 0 0 0 0 0 0 0 0 0 0 0 0 0 0.1 0"/>
<feBlend mode="normal" in2="BackgroundImageFix" result="effect1_dropShadow_329_559"/>
<feBlend mode="normal" in="SourceGraphic" in2="effect1_dropShadow_329_559" result="shape"/>
</filter>
<radialGradient id="paint0_radial_329_559" cx="0" cy="0" r="1" gradientUnits="userSpaceOnUse" gradientTransform="translate(38.75 38.75) rotate(90) scale(22.5)">
<stop stop-color="white" stop-opacity="0"/>
<stop offset="1" stop-color="white"/>
</radialGradient>
<radialGradient id="paint1_radial_329_559" cx="0" cy="0" r="1" gradientUnits="userSpaceOnUse" gradientTransform="translate(38.7497 38.75) rotate(120) scale(22.5106)">
<stop stop-color="white" stop-opacity="0"/>
<stop offset="1" stop-color="white"/>
</radialGradient>
</defs>
</svg>
